<svg width="1519" height="1519" viewBox="0 0 1519 1519" fill="none" xmlns="http://www.w3.org/2000/svg">
<path d="M724.565 873.014L726.844 853.485H707.183H626.405H611.413L609.112 868.299C601.571 916.843 586.693 947.252 567.357 963.688C547.932 980.158 518.41 989.699 476.149 989.699C431.917 989.699 398.711 972.7 374.508 938.427C349.632 903.2 336.278 854.467 336.278 790.515V731.419C336.278 663.425 350.381 613.69 376.191 579.873C401.913 546.529 436.925 529.721 483.264 529.721C522.109 529.721 549.798 539.783 568.791 557.656L568.829 557.692L568.867 557.727C588.171 575.677 602.386 606.345 609.082 653.015L611.236 668.029H626.405H707.183H726.526L724.595 648.783C717.846 581.49 693.676 527.173 650.854 487.648C607.893 447.713 551.411 428.5 483.264 428.5C431.564 428.5 385.317 440.812 345.12 465.921C304.89 490.77 273.988 526.432 252.318 572.211L252.298 572.253L252.278 572.295C230.916 618.049 220.5 670.535 220.5 729.324V788C220.5 877.529 242.892 951.045 289.452 1006.69L289.47 1006.71L289.487 1006.74C336.581 1062.66 399.382 1090.5 476.149 1090.5C545.69 1090.5 603.303 1072.15 647.139 1033.78L647.145 1033.77C691.259 995.12 716.642 940.887 724.565 873.014ZM1176.57 448.662L1019.03 904.094L862.266 448.686L858.203 436.882H845.719H758.244H733.117L741.83 460.45L967.423 1070.69L971.649 1082.12H983.837H1054.99H1067.17L1071.4 1070.7L1297.41 460.46L1306.14 436.882H1281H1193.11H1180.64L1176.57 448.662Z" stroke="#E9E1E1" stroke-width="35"/>
<path d="M759.5 31C661.139 31 565.738 50.2572 475.944 88.2365C389.199 124.927 311.287 177.459 244.373 244.373C177.459 311.287 124.927 389.199 88.2365 475.944C50.2572 565.738 31 661.139 31 759.5C31 857.861 50.2572 953.262 88.2365 1043.06C124.927 1129.8 177.459 1207.71 244.373 1274.63C311.287 1341.54 389.199 1394.07 475.944 1430.76C565.738 1468.74 661.139 1488 759.5 1488C857.861 1488 953.262 1468.74 1043.06 1430.76C1129.8 1394.07 1207.71 1341.54 1274.63 1274.63C1341.54 1207.71 1394.07 1129.8 1430.76 1043.06C1468.74 953.262 1488 857.861 1488 759.5C1488 661.139 1468.74 565.738 1430.76 475.944C1394.07 389.199 1341.54 311.287 1274.63 244.373C1207.71 177.459 1129.8 124.927 1043.06 88.2365C953.262 50.2572 857.861 31 759.5 31ZM759.5 0C1178.96 0 1519 340.04 1519 759.5C1519 1178.96 1178.96 1519 759.5 1519C340.04 1519 0 1178.96 0 759.5C0 340.04 340.04 0 759.5 0Z" fill="#E9E1E1"/>
</svg>
