<svg width="1519" height="1519" viewBox="0 0 1519 1519" fill="none" xmlns="http://www.w3.org/2000/svg">
<path d="M759.5 31C661.139 31 565.738 50.2572 475.944 88.2365C389.199 124.927 311.287 177.459 244.373 244.373C177.459 311.287 124.927 389.199 88.2365 475.944C50.2572 565.738 31 661.139 31 759.5C31 857.861 50.2572 953.262 88.2365 1043.06C124.927 1129.8 177.459 1207.71 244.373 1274.63C311.287 1341.54 389.199 1394.07 475.944 1430.76C565.738 1468.74 661.139 1488 759.5 1488C857.861 1488 953.262 1468.74 1043.06 1430.76C1129.8 1394.07 1207.71 1341.54 1274.63 1274.63C1341.54 1207.71 1394.07 1129.8 1430.76 1043.06C1468.74 953.262 1488 857.861 1488 759.5C1488 661.139 1468.74 565.738 1430.76 475.944C1394.07 389.199 1341.54 311.287 1274.63 244.373C1207.71 177.459 1129.8 124.927 1043.06 88.2365C953.262 50.2572 857.861 31 759.5 31ZM759.5 0C1178.96 0 1519 340.04 1519 759.5C1519 1178.96 1178.96 1519 759.5 1519C340.04 1519 0 1178.96 0 759.5C0 340.04 340.04 0 759.5 0Z" fill="#E9E1E1"/>
<path d="M788.555 840.057V1085.55H664.999V657.115H788.555V709.168V742.41L807.65 715.2C818.081 700.336 830.692 683.361 849.529 669.954C868.14 656.707 893.343 646.602 929.418 646.602C974.493 646.602 1013.13 661.397 1040.58 691.329C1068.11 721.35 1085.55 767.87 1085.55 833.486V1085.55H961.995V850.307C961.995 819.917 956.62 792.702 943.138 772.798C929.2 752.222 907.449 740.721 878.166 740.721C832.493 740.721 805.824 771.92 794.326 800.609C789.549 812.125 788.555 826.789 788.555 840.057ZM1183.31 244.5H341.208C290.673 244.5 244.5 281.134 244.5 333.586V1177.53C244.5 1229 289.352 1274.5 341.208 1274.5H1183.05C1236.04 1274.5 1274.5 1227.81 1274.5 1177.53V333.614C1274.78 281.941 1234.71 244.5 1183.31 244.5ZM557.266 1085.55H433.71V657.115H557.266V1085.55ZM500.482 567.78H499.43C459.489 567.78 433.71 538.582 433.71 500.745C433.71 481.284 440.497 464.619 452.003 452.862C463.47 441.146 480.204 433.71 501.27 433.71C522.323 433.71 538.55 441.068 549.668 452.681C560.845 464.356 567.544 481.062 568.042 500.87C568.013 519.924 561.4 536.562 549.992 548.386C538.62 560.173 521.907 567.78 500.482 567.78Z" stroke="#E9E1E1" stroke-width="21"/>
</svg>
