<svg width="1519" height="1519" viewBox="0 0 1519 1519" fill="none" xmlns="http://www.w3.org/2000/svg">
<path d="M759.5 31C661.139 31 565.738 50.2572 475.944 88.2365C389.199 124.927 311.287 177.459 244.373 244.373C177.459 311.287 124.927 389.199 88.2365 475.944C50.2572 565.738 31 661.139 31 759.5C31 857.861 50.2572 953.262 88.2365 1043.06C124.927 1129.8 177.459 1207.71 244.373 1274.63C311.287 1341.54 389.199 1394.07 475.944 1430.76C565.738 1468.74 661.139 1488 759.5 1488C857.861 1488 953.262 1468.74 1043.06 1430.76C1129.8 1394.07 1207.71 1341.54 1274.63 1274.63C1341.54 1207.71 1394.07 1129.8 1430.76 1043.06C1468.74 953.262 1488 857.861 1488 759.5C1488 661.139 1468.74 565.738 1430.76 475.944C1394.07 389.199 1341.54 311.287 1274.63 244.373C1207.71 177.459 1129.8 124.927 1043.06 88.2365C953.262 50.2572 857.861 31 759.5 31ZM759.5 0C1178.96 0 1519 340.04 1519 759.5C1519 1178.96 1178.96 1519 759.5 1519C340.04 1519 0 1178.96 0 759.5C0 340.04 340.04 0 759.5 0Z" fill="#E9E1E1"/>
<path d="M173 392V1128M173 392H1347M173 392L582.647 750.526M173 1128H1347M173 1128L582.647 750.526M1347 1128V392M1347 1128L945.519 750.526M1347 392L945.519 750.526M945.519 750.526L765.909 910.919L582.647 750.526" stroke="#E9E1E1" stroke-width="21"/>
</svg>
